<svg
   width="100%"
   height="100%"
   viewBox="0 0 40.101002 40.101002"
   version="1.1"
   xmlns="http://www.w3.org/2000/svg"
   >
  <defs
     id="defs1" />
  <g
     id="layer1"
     transform="translate(-59.976329,-60.417643)">
    <rect
       style="fill:#fdffff;stroke:#000000;stroke-width:0.101;stroke-miterlimit:3.7"
       id="rect1"
       width="39.899559"
       height="39.57756"
       x="60.159271"
       y="60.829666"
       ry="5.1426916" />
    <path
       id="path1"
       style="fill:#1ee2e6;fill-opacity:1;stroke-width:0.0889977;stroke-miterlimit:3.7"
       d="m 82.345041,70.764305 c -1.877845,0 -3.481423,1.131122 -4.170594,2.751709 a 9.2476922,9.2476922 0 0 1 3.153331,6.952357 9.2476922,9.2476922 0 0 1 -3.153787,6.950992 c 0.688951,1.621089 2.292842,2.752619 4.17105,2.752619 h 10.344295 c 2.510482,0 4.531691,-2.021208 4.531691,-4.531692 V 75.295996 c 0,-2.510483 -2.021209,-4.531691 -4.531691,-4.531691 z m -4.17105,16.655058 C 77.942064,86.873643 77.81335,86.272567 77.81335,85.64029 V 75.295996 c 0,-0.632638 0.128917,-1.234012 0.361097,-1.779982 a 9.2476922,9.2476922 0 0 0 -6.094469,-2.295443 9.2476922,9.2476922 0 0 0 -9.247346,9.2478 9.2476922,9.2476922 0 0 0 9.247346,9.247345 9.2476922,9.2476922 0 0 0 6.094013,-2.296353 z" />
  </g>
</svg>
